<?xml version="1.0" encoding="UTF-8"?>
<svg version="1.1" xmlns="http://www.w3.org/2000/svg" width="400" height="400">
<path d="M0 0 C0.8125 2.125 0.8125 2.125 1 4 C2.98 4.495 2.98 4.495 5 5 C5 5.99 5 6.98 5 8 C6.98 8 8.96 8 11 8 C11.2475 8.61875 11.495 9.2375 11.75 9.875 C13.20628639 12.35068687 14.37812506 12.95125002 17 14 C17 14.66 17 15.32 17 16 C18.32 16.33 19.64 16.66 21 17 C21 17.99 21 18.98 21 20 C22.32 20.33 23.64 20.66 25 21 C25 23.31 25 25.62 25 28 C26.32 28.33 27.64 28.66 29 29 C29 31.31 29 33.62 29 36 C30.32 36.33 31.64 36.66 33 37 C33 40.63 33 44.26 33 48 C34.32 48.66 35.64 49.32 37 50 C37.50390625 52.3125 37.50390625 52.3125 37.5625 55 C37.56755634 57.63533513 37.56755634 57.63533513 38 60 C38.99 60.66 39.98 61.32 41 62 C41.40625 64.27734375 41.40625 64.27734375 41.5 66.9375 C41.53770129 70.6712233 41.53770129 70.6712233 43.51953125 73.6484375 C44.25236328 74.31746094 44.25236328 74.31746094 45 75 C45.1875 77.6875 45.1875 77.6875 45 80 C46.32 80.33 47.64 80.66 49 81 C49 84.63 49 88.26 49 92 C49.99 92.33 50.98 92.66 52 93 C53.50156874 96.00313748 53.09281204 98.79067522 53.0625 102.125 C53.05347656 103.40632813 53.04445313 104.68765625 53.03515625 106.0078125 C53.01775391 107.48894531 53.01775391 107.48894531 53 109 C51.68 109.33 50.36 109.66 49 110 C49 112.31 49 114.62 49 117 C47.68 117.33 46.36 117.66 45 118 C45 118.66 45 119.32 45 120 C46.32 120.33 47.64 120.66 49 121 C49 121.99 49 122.98 49 124 C49.69867188 123.98839844 50.39734375 123.97679687 51.1171875 123.96484375 C52.02726563 123.95582031 52.93734375 123.94679688 53.875 123.9375 C54.77992188 123.92589844 55.68484375 123.91429687 56.6171875 123.90234375 C59 124 59 124 61 125 C61 125.99 61 126.98 61 128 C62.32 128.66 63.64 129.32 65 130 C65 130.66 65 131.32 65 132 C65.5775 132.0825 66.155 132.165 66.75 132.25 C69.80545009 133.26848336 71.08676027 134.40346036 73 137 C73.25 140.75 73.25 140.75 73 144 C74.32 144.66 75.64 145.32 77 146 C77 146.66 77 147.32 77 148 C78.32 148.66 79.64 149.32 81 150 C81 153.3 81 156.6 81 160 C82.32 160.66 83.64 161.32 85 162 C85 165.3 85 168.6 85 172 C86.32 172.33 87.64 172.66 89 173 C89.12375 174.134375 89.2475 175.26875 89.375 176.4375 C89.58125 177.613125 89.7875 178.78875 90 180 C90.66 180.33 91.32 180.66 92 181 C93.09506492 184.28519475 93.09960608 186.73663415 93.0625 190.1875 C93.05347656 191.27417969 93.04445313 192.36085938 93.03515625 193.48046875 C93.01775391 194.72763672 93.01775391 194.72763672 93 196 C94.32 196.66 95.64 197.32 97 198 C97 205.26 97 212.52 97 220 C98.32 220.66 99.64 221.32 101 222 C101 226.62 101 231.24 101 236 C102.32 236.33 103.64 236.66 105 237 C105 241.95 105 246.9 105 252 C106.32 252.66 107.64 253.32 109 254 C109 257.3 109 260.6 109 264 C110.32 264.33 111.64 264.66 113 265 C112.979375 266.0725 112.95875 267.145 112.9375 268.25 C112.93723526 272.24974163 112.93723526 272.24974163 114 276 C114.99 276.33 115.98 276.66 117 277 C117 282.94 117 288.88 117 295 C33.18 295 -50.64 295 -137 295 C-137 290.38 -137 285.76 -137 281 C-135.68 280.67 -134.36 280.34 -133 280 C-133 274.39 -133 268.78 -133 263 C-131.68 262.67 -130.36 262.34 -129 262 C-129 256.72 -129 251.44 -129 246 C-127.02 245.01 -127.02 245.01 -125 244 C-125 237.73 -125 231.46 -125 225 C-123.68 224.67 -122.36 224.34 -121 224 C-121.01160156 223.01257813 -121.02320312 222.02515625 -121.03515625 221.0078125 C-121.04417969 219.72648438 -121.05320312 218.44515625 -121.0625 217.125 C-121.07410156 215.84882813 -121.08570312 214.57265625 -121.09765625 213.2578125 C-121 210 -121 210 -120 208 C-119.01 208 -118.02 208 -117 208 C-117 203.05 -117 198.1 -117 193 C-115.68 192.67 -114.36 192.34 -113 192 C-113 188.7 -113 185.4 -113 182 C-111.02 181.01 -111.02 181.01 -109 180 C-109.01160156 179.01257813 -109.02320312 178.02515625 -109.03515625 177.0078125 C-109.04417969 175.72648438 -109.05320312 174.44515625 -109.0625 173.125 C-109.07410156 171.84882813 -109.08570312 170.57265625 -109.09765625 169.2578125 C-109 166 -109 166 -108 164 C-107.01 164 -106.02 164 -105 164 C-105.01160156 163.30132812 -105.02320312 162.60265625 -105.03515625 161.8828125 C-105.04417969 160.97273437 -105.05320312 160.06265625 -105.0625 159.125 C-105.07410156 158.22007812 -105.08570312 157.31515625 -105.09765625 156.3828125 C-105 154 -105 154 -104 152 C-103.01 152 -102.02 152 -101 152 C-101.020625 151.05125 -101.04125 150.1025 -101.0625 149.125 C-101 146 -101 146 -100 144 C-99.01 144 -98.02 144 -97 144 C-97 142.02 -97 140.04 -97 138 C-96.0409375 137.5978125 -96.0409375 137.5978125 -95.0625 137.1875 C-92.66868314 136.11332248 -92.66868314 136.11332248 -92 133 C-88.25105926 129.42146566 -86.13560536 127.85593423 -81 127 C-80.34 126.01 -79.68 125.02 -79 124 C-75.875 123.8125 -75.875 123.8125 -73 124 C-73 123.01 -73 122.02 -73 121 C-71.68 120.67 -70.36 120.34 -69 120 C-69 118.02 -69 116.04 -69 114 C-70.98 113.505 -70.98 113.505 -73 113 C-73 112.01 -73 111.02 -73 110 C-73.99 110 -74.98 110 -76 110 C-77.17426264 107.65147472 -77.11508173 106.26225935 -77.09765625 103.6484375 C-77.09443359 102.79765625 -77.09121094 101.946875 -77.08789062 101.0703125 C-77.07532227 99.73613281 -77.07532227 99.73613281 -77.0625 98.375 C-77.05798828 97.4778125 -77.05347656 96.580625 -77.04882812 95.65625 C-77.03702591 93.43743352 -77.02056155 91.21874982 -77 89 C-75.02 88.505 -75.02 88.505 -73 88 C-73.04125 86.7625 -73.0825 85.525 -73.125 84.25 C-73.13658291 80.98362038 -72.8568702 78.7853053 -71 76 C-70.34 76 -69.68 76 -69 76 C-68.67 73.36 -68.34 70.72 -68 68 C-67.01 68 -66.02 68 -65 68 C-65.020625 66.7625 -65.04125 65.525 -65.0625 64.25 C-65.06766681 61.3359175 -64.93015558 58.79046673 -64 56 C-63.01 56 -62.02 56 -61 56 C-61.01160156 55.38511719 -61.02320313 54.77023438 -61.03515625 54.13671875 C-61.04417969 53.32847656 -61.05320312 52.52023438 -61.0625 51.6875 C-61.07410156 50.88699219 -61.08570313 50.08648437 -61.09765625 49.26171875 C-61 47 -61 47 -60 44 C-59.01 44 -58.02 44 -57 44 C-57 40.37 -57 36.74 -57 33 C-55.68 32.67 -54.36 32.34 -53 32 C-53.020625 31.05125 -53.04125 30.1025 -53.0625 29.125 C-53 26 -53 26 -52 24 C-51.01 24 -50.02 24 -49 24 C-48.67 22.68 -48.34 21.36 -48 20 C-47.01 20 -46.02 20 -45 20 C-44.67 18.68 -44.34 17.36 -44 16 C-43.01 16 -42.02 16 -41 16 C-40.34 14.68 -39.68 13.36 -39 12 C-38.34 12 -37.68 12 -37 12 C-36.67 10.68 -36.34 9.36 -36 8 C-35.01 8 -34.02 8 -33 8 C-32.67 6.68 -32.34 5.36 -32 4 C-31.01 4 -30.02 4 -29 4 C-28.67 2.68 -28.34 1.36 -28 0 C-19.32523484 -2.39303866 -8.29956712 -4.35536917 0 0 Z " fill="#221820" transform="translate(209,105)"/>
<path d="M0 0 C0.8125 2.125 0.8125 2.125 1 4 C2.98 4.495 2.98 4.495 5 5 C5 5.99 5 6.98 5 8 C6.98 8 8.96 8 11 8 C11.2475 8.61875 11.495 9.2375 11.75 9.875 C13.20628639 12.35068687 14.37812506 12.95125002 17 14 C17 14.66 17 15.32 17 16 C18.32 16.33 19.64 16.66 21 17 C21 17.99 21 18.98 21 20 C22.32 20.33 23.64 20.66 25 21 C25 23.31 25 25.62 25 28 C26.32 28.33 27.64 28.66 29 29 C29 31.31 29 33.62 29 36 C30.32 36.33 31.64 36.66 33 37 C33 40.63 33 44.26 33 48 C34.32 48.66 35.64 49.32 37 50 C37.50390625 52.3125 37.50390625 52.3125 37.5625 55 C37.56755634 57.63533513 37.56755634 57.63533513 38 60 C38.99 60.66 39.98 61.32 41 62 C41.40625 64.27734375 41.40625 64.27734375 41.5 66.9375 C41.53770129 70.6712233 41.53770129 70.6712233 43.51953125 73.6484375 C44.25236328 74.31746094 44.25236328 74.31746094 45 75 C45.1875 77.6875 45.1875 77.6875 45 80 C46.32 80.33 47.64 80.66 49 81 C49 84.63 49 88.26 49 92 C49.99 92.33 50.98 92.66 52 93 C53.50156874 96.00313748 53.09281204 98.79067522 53.0625 102.125 C53.05347656 103.40632813 53.04445313 104.68765625 53.03515625 106.0078125 C53.01775391 107.48894531 53.01775391 107.48894531 53 109 C51.68 109.33 50.36 109.66 49 110 C49 112.31 49 114.62 49 117 C47.68 117.33 46.36 117.66 45 118 C45 118.66 45 119.32 45 120 C46.32 120.33 47.64 120.66 49 121 C49 121.99 49 122.98 49 124 C52.3 124 55.6 124 59 124 C59.33 125.65 59.66 127.3 60 129 C56.04 129 52.08 129 48 129 C47.67 128.01 47.34 127.02 47 126 C46.01 125.67 45.02 125.34 44 125 C44 123.68 44 122.36 44 121 C40.04 121 36.08 121 32 121 C32 122.32 32 123.64 32 125 C26.72 125 21.44 125 16 125 C16 126.98 16 128.96 16 131 C14.02 131 12.04 131 10 131 C9.34 132.32 8.68 133.64 8 135 C5.69 135 3.38 135 1 135 C0.67 135.66 0.34 136.32 0 137 C-1.32 137 -2.64 137 -4 137 C-4 138.32 -4 139.64 -4 141 C-8.29 141 -12.58 141 -17 141 C-17 140.34 -17 139.68 -17 139 C-17.8971875 138.5978125 -17.8971875 138.5978125 -18.8125 138.1875 C-20.97224808 137.01506533 -22.35790256 135.80630718 -24 134 C-24.66 134.33 -25.32 134.66 -26 135 C-26 133.68 -26 132.36 -26 131 C-27.98 131 -29.96 131 -32 131 C-32 129.02 -32 127.04 -32 125 C-39.92 125 -47.84 125 -56 125 C-56 123.68 -56 122.36 -56 121 C-59.96 121 -63.92 121 -68 121 C-68 122.32 -68 123.64 -68 125 C-69.32 125 -70.64 125 -72 125 C-72 126.32 -72 127.64 -72 129 C-77.75 130.125 -77.75 130.125 -80 129 C-80 130.32 -80 131.64 -80 133 C-82.31 133.33 -84.62 133.66 -87 134 C-87.33 134.99 -87.66 135.98 -88 137 C-88.99 137.33 -89.98 137.66 -91 138 C-91.33 140.31 -91.66 142.62 -92 145 C-93.32 145 -94.64 145 -96 145 C-96 147.64 -96 150.28 -96 153 C-96.99 153.33 -97.98 153.66 -99 154 C-99.33 157.63 -99.66 161.26 -100 165 C-101.32 165 -102.64 165 -104 165 C-104 170.28 -104 175.56 -104 181 C-104.99 181.33 -105.98 181.66 -107 182 C-107.33 185.63 -107.66 189.26 -108 193 C-108.99 193 -109.98 193 -111 193 C-111.33 198.28 -111.66 203.56 -112 209 C-112.99 209.33 -113.98 209.66 -115 210 C-115.05386629 212.12472576 -115.09273071 214.24983652 -115.125 216.375 C-115.14820312 217.55835938 -115.17140625 218.74171875 -115.1953125 219.9609375 C-115.32866229 223.11153817 -115.32866229 223.11153817 -113 225 C-115.97 225.99 -115.97 225.99 -119 227 C-118.34 227.66 -117.68 228.32 -117 229 C-117.99 229.99 -117.99 229.99 -119 231 C-119.30059943 233.36509361 -119.49515012 235.74441881 -119.625 238.125 C-119.69976562 239.40632812 -119.77453125 240.68765625 -119.8515625 242.0078125 C-119.90054688 242.99523437 -119.94953125 243.98265625 -120 245 C-120.99 245.33 -121.98 245.66 -123 246 C-123.33 251.61 -123.66 257.22 -124 263 C-125.32 263 -126.64 263 -128 263 C-128 269.27 -128 275.54 -128 282 C-128.99 282 -129.98 282 -131 282 C-131.33 286.29 -131.66 290.58 -132 295 C-133.65 295 -135.3 295 -137 295 C-137 290.38 -137 285.76 -137 281 C-135.68 280.67 -134.36 280.34 -133 280 C-133 274.39 -133 268.78 -133 263 C-131.68 262.67 -130.36 262.34 -129 262 C-129 256.72 -129 251.44 -129 246 C-127.02 245.01 -127.02 245.01 -125 244 C-125 237.73 -125 231.46 -125 225 C-123.68 224.67 -122.36 224.34 -121 224 C-121.01160156 223.01257813 -121.02320312 222.02515625 -121.03515625 221.0078125 C-121.04417969 219.72648438 -121.05320312 218.44515625 -121.0625 217.125 C-121.07410156 215.84882813 -121.08570312 214.57265625 -121.09765625 213.2578125 C-121 210 -121 210 -120 208 C-119.01 208 -118.02 208 -117 208 C-117 203.05 -117 198.1 -117 193 C-115.68 192.67 -114.36 192.34 -113 192 C-113 188.7 -113 185.4 -113 182 C-111.02 181.01 -111.02 181.01 -109 180 C-109.01160156 179.01257813 -109.02320312 178.02515625 -109.03515625 177.0078125 C-109.04417969 175.72648438 -109.05320312 174.44515625 -109.0625 173.125 C-109.07410156 171.84882813 -109.08570312 170.57265625 -109.09765625 169.2578125 C-109 166 -109 166 -108 164 C-107.01 164 -106.02 164 -105 164 C-105.01160156 163.30132812 -105.02320312 162.60265625 -105.03515625 161.8828125 C-105.04417969 160.97273437 -105.05320312 160.06265625 -105.0625 159.125 C-105.07410156 158.22007812 -105.08570312 157.31515625 -105.09765625 156.3828125 C-105 154 -105 154 -104 152 C-103.01 152 -102.02 152 -101 152 C-101.020625 151.05125 -101.04125 150.1025 -101.0625 149.125 C-101 146 -101 146 -100 144 C-99.01 144 -98.02 144 -97 144 C-97 142.02 -97 140.04 -97 138 C-96.0409375 137.5978125 -96.0409375 137.5978125 -95.0625 137.1875 C-92.66868314 136.11332248 -92.66868314 136.11332248 -92 133 C-88.25105926 129.42146566 -86.13560536 127.85593423 -81 127 C-80.34 126.01 -79.68 125.02 -79 124 C-75.875 123.8125 -75.875 123.8125 -73 124 C-73 123.01 -73 122.02 -73 121 C-71.68 120.67 -70.36 120.34 -69 120 C-69 118.02 -69 116.04 -69 114 C-70.98 113.505 -70.98 113.505 -73 113 C-73 112.01 -73 111.02 -73 110 C-73.99 110 -74.98 110 -76 110 C-77.17426264 107.65147472 -77.11508173 106.26225935 -77.09765625 103.6484375 C-77.09443359 102.79765625 -77.09121094 101.946875 -77.08789062 101.0703125 C-77.07532227 99.73613281 -77.07532227 99.73613281 -77.0625 98.375 C-77.05798828 97.4778125 -77.05347656 96.580625 -77.04882812 95.65625 C-77.03702591 93.43743352 -77.02056155 91.21874982 -77 89 C-75.02 88.505 -75.02 88.505 -73 88 C-73.04125 86.7625 -73.0825 85.525 -73.125 84.25 C-73.13658291 80.98362038 -72.8568702 78.7853053 -71 76 C-70.34 76 -69.68 76 -69 76 C-68.67 73.36 -68.34 70.72 -68 68 C-67.01 68 -66.02 68 -65 68 C-65.020625 66.7625 -65.04125 65.525 -65.0625 64.25 C-65.06766681 61.3359175 -64.93015558 58.79046673 -64 56 C-63.01 56 -62.02 56 -61 56 C-61.01160156 55.38511719 -61.02320313 54.77023438 -61.03515625 54.13671875 C-61.04417969 53.32847656 -61.05320312 52.52023438 -61.0625 51.6875 C-61.07410156 50.88699219 -61.08570313 50.08648437 -61.09765625 49.26171875 C-61 47 -61 47 -60 44 C-59.01 44 -58.02 44 -57 44 C-57 40.37 -57 36.74 -57 33 C-55.68 32.67 -54.36 32.34 -53 32 C-53.020625 31.05125 -53.04125 30.1025 -53.0625 29.125 C-53 26 -53 26 -52 24 C-51.01 24 -50.02 24 -49 24 C-48.67 22.68 -48.34 21.36 -48 20 C-47.01 20 -46.02 20 -45 20 C-44.67 18.68 -44.34 17.36 -44 16 C-43.01 16 -42.02 16 -41 16 C-40.34 14.68 -39.68 13.36 -39 12 C-38.34 12 -37.68 12 -37 12 C-36.67 10.68 -36.34 9.36 -36 8 C-35.01 8 -34.02 8 -33 8 C-32.67 6.68 -32.34 5.36 -32 4 C-31.01 4 -30.02 4 -29 4 C-28.67 2.68 -28.34 1.36 -28 0 C-19.32523484 -2.39303866 -8.29956712 -4.35536917 0 0 Z " fill="#020103" transform="translate(209,105)"/>
<path d="M0 0 C4.29 0 8.58 0 13 0 C13 0.33 13 0.66 13 1 C15.31 1.33 17.62 1.66 20 2 C20 3.32 20 4.64 20 6 C21.32 6.33 22.64 6.66 24 7 C24 7.99 24 8.98 24 10 C26.64 10 29.28 10 32 10 C32 11.32 32 12.64 32 14 C33.32 14.33 34.64 14.66 36 15 C36 15.99 36 16.98 36 18 C37.32 18 38.64 18 40 18 C40 20.64 40 23.28 40 26 C41.98 26.495 41.98 26.495 44 27 C44 29.31 44 31.62 44 34 C45.32 34 46.64 34 48 34 C48 37.96 48 41.92 48 46 C48.99 46 49.98 46 51 46 C52.26237731 48.52475462 52.09856404 50.31200466 52.0625 53.125 C52.05347656 54.03507812 52.04445313 54.94515625 52.03515625 55.8828125 C52.02355469 56.58148438 52.01195312 57.28015625 52 58 C53.32 58 54.64 58 56 58 C56 61.96 56 65.92 56 70 C57.32 70 58.64 70 60 70 C60.0825 71.0725 60.165 72.145 60.25 73.25 C60.61470069 77.04144941 60.61470069 77.04144941 63.125 78.875 C65 81 65 81 65.0390625 83.2421875 C64.776608 85.51915761 64.44202885 87.75141844 64 90 C62.68 90 61.36 90 60 90 C60 88.68 60 87.36 60 86 C57.03 86 54.06 86 51 86 C51.33 83.36 51.66 80.72 52 78 C49.03 78 46.06 78 43 78 C43.495 76.02 43.495 76.02 44 74 C42.68 74 41.36 74 40 74 C39.67 73.01 39.34 72.02 39 71 C37.515 70.505 37.515 70.505 36 70 C36 67.36 36 64.72 36 62 C34.68 62 33.36 62 32 62 C32 60.68 32 59.36 32 58 C30.68 58 29.36 58 28 58 C28 56.68 28 55.36 28 54 C26.68 54 25.36 54 24 54 C24 51.36 24 48.72 24 46 C22.68 46 21.36 46 20 46 C20 44.68 20 43.36 20 42 C18.68 42 17.36 42 16 42 C15.67 41.01 15.34 40.02 15 39 C13.515 38.505 13.515 38.505 12 38 C12 36.68 12 35.36 12 34 C8.04 34 4.08 34 0 34 C0 35.32 0 36.64 0 38 C-1.32 38 -2.64 38 -4 38 C-4 39.32 -4 40.64 -4 42 C-5.32 42 -6.64 42 -8 42 C-8 43.32 -8 44.64 -8 46 C-10.64 46 -13.28 46 -16 46 C-16 47.32 -16 48.64 -16 50 C-17.32 50 -18.64 50 -20 50 C-20 52.64 -20 55.28 -20 58 C-21.32 58 -22.64 58 -24 58 C-24 59.32 -24 60.64 -24 62 C-25.32 62 -26.64 62 -28 62 C-28 63.32 -28 64.64 -28 66 C-30.64 66 -33.28 66 -36 66 C-36 67.32 -36 68.64 -36 70 C-37.32 70 -38.64 70 -40 70 C-40.103125 70.763125 -40.20625 71.52625 -40.3125 72.3125 C-41 75 -41 75 -42.0625 76.875 C-45.33007019 78.77229882 -48.36906876 77.65475809 -52 77 C-51.67 75.68 -51.34 74.36 -51 73 C-50.34 73 -49.68 73 -49 73 C-48.67 70.36 -48.34 67.72 -48 65 C-47.01 65 -46.02 65 -45 65 C-45.020625 63.7625 -45.04125 62.525 -45.0625 61.25 C-45.06766681 58.3359175 -44.93015558 55.79046673 -44 53 C-43.01 53 -42.02 53 -41 53 C-41 50.36 -41 47.72 -41 45 C-40.67 45 -40.34 45 -40 45 C-39.855625 46.11375 -39.71125 47.2275 -39.5625 48.375 C-39.21627965 51.82142047 -39.21627965 51.82142047 -38 54 C-37.34 54 -36.68 54 -36 54 C-36 50.37 -36 46.74 -36 43 C-34.02 42.505 -34.02 42.505 -32 42 C-32 39.36 -32 36.72 -32 34 C-32.66 33.67 -33.32 33.34 -34 33 C-33.67 32.34 -33.34 31.68 -33 31 C-30.4375 30.375 -30.4375 30.375 -28 30 C-28 28.02 -28 26.04 -28 24 C-26.68 24 -25.36 24 -24 24 C-24.99 23.34 -25.98 22.68 -27 22 C-26.01 22 -25.02 22 -24 22 C-23.67 20.68 -23.34 19.36 -23 18 C-22.01 18 -21.02 18 -20 18 C-20 16.68 -20 15.36 -20 14 C-18.68 14 -17.36 14 -16 14 C-16 12.68 -16 11.36 -16 10 C-14.68 10 -13.36 10 -12 10 C-12 8.68 -12 7.36 -12 6 C-10.68 6 -9.36 6 -8 6 C-7.67 4.68 -7.34 3.36 -7 2 C-2.25 0.875 -2.25 0.875 0 2 C0 1.34 0 0.68 0 0 Z " fill="#2E222B" transform="translate(189,108)"/>
<path d="M0 0 C1.65 0 3.3 0 5 0 C5 2.64 5 5.28 5 8 C6.32 8.33 7.64 8.66 9 9 C9 11.31 9 13.62 9 16 C10.32 16 11.64 16 13 16 C13 19.96 13 23.92 13 28 C13.99 28 14.98 28 16 28 C17.26237731 30.52475462 17.09856404 32.31200466 17.0625 35.125 C17.05347656 36.03507812 17.04445312 36.94515625 17.03515625 37.8828125 C17.02355469 38.58148438 17.01195312 39.28015625 17 40 C18.32 40 19.64 40 21 40 C21 43.96 21 47.92 21 52 C22.32 52 23.64 52 25 52 C25.0825 53.0725 25.165 54.145 25.25 55.25 C25.61470069 59.04144941 25.61470069 59.04144941 28.125 60.875 C30 63 30 63 30.0390625 65.2421875 C29.776608 67.51915761 29.44202885 69.75141844 29 72 C27.68 72 26.36 72 25 72 C25 70.68 25 69.36 25 68 C22.03 68 19.06 68 16 68 C16.33 65.36 16.66 62.72 17 60 C14.03 60 11.06 60 8 60 C8.33 58.68 8.66 57.36 9 56 C7.68 56 6.36 56 5 56 C4.67 55.01 4.34 54.02 4 53 C2.515 52.505 2.515 52.505 1 52 C1 49.36 1 46.72 1 44 C-0.32 44 -1.64 44 -3 44 C-3 42.68 -3 41.36 -3 40 C-4.32 40 -5.64 40 -7 40 C-7 38.68 -7 37.36 -7 36 C-8.32 36 -9.64 36 -11 36 C-11 33.36 -11 30.72 -11 28 C-12.32 28 -13.64 28 -15 28 C-15 26.68 -15 25.36 -15 24 C-16.32 24 -17.64 24 -19 24 C-19.33 23.01 -19.66 22.02 -20 21 C-20.99 20.67 -21.98 20.34 -23 20 C-23 18.68 -23 17.36 -23 16 C-22.34 16 -21.68 16 -21 16 C-21 15.01 -21 14.02 -21 13 C-19.02 13 -17.04 13 -15 13 C-15 13.99 -15 14.98 -15 16 C-12.36 16 -9.72 16 -7 16 C-7.33 13.03 -7.66 10.06 -8 7 C-5.03 7.33 -2.06 7.66 1 8 C0.67 5.36 0.34 2.72 0 0 Z " fill="#1F171E" transform="translate(224,126)"/>
<path d="M0 0 C1.32 0 2.64 0 4 0 C4 3.96 4 7.92 4 12 C2.68 12 1.36 12 0 12 C0 13.32 0 14.64 0 16 C-5.75 17.125 -5.75 17.125 -8 16 C-8 17.32 -8 18.64 -8 20 C-10.31 20.33 -12.62 20.66 -15 21 C-15.495 22.485 -15.495 22.485 -16 24 C-16.99 24.33 -17.98 24.66 -19 25 C-19.33 27.31 -19.66 29.62 -20 32 C-21.32 32 -22.64 32 -24 32 C-24 34.64 -24 37.28 -24 40 C-24.99 40.33 -25.98 40.66 -27 41 C-27.33 44.63 -27.66 48.26 -28 52 C-29.32 52 -30.64 52 -32 52 C-32 57.28 -32 62.56 -32 68 C-33.485 68.495 -33.485 68.495 -35 69 C-35.33 72.63 -35.66 76.26 -36 80 C-36.99 80 -37.98 80 -39 80 C-39.33 85.28 -39.66 90.56 -40 96 C-41.485 96.495 -41.485 96.495 -43 97 C-43.05386629 99.12472576 -43.09273071 101.24983652 -43.125 103.375 C-43.14820312 104.55835938 -43.17140625 105.74171875 -43.1953125 106.9609375 C-43.32866229 110.11153817 -43.32866229 110.11153817 -41 112 C-43.97 112.99 -43.97 112.99 -47 114 C-46.34 114.66 -45.68 115.32 -45 116 C-45.99 116.99 -45.99 116.99 -47 118 C-47.30059943 120.36509361 -47.49515012 122.74441881 -47.625 125.125 C-47.69976562 126.40632813 -47.77453125 127.68765625 -47.8515625 129.0078125 C-47.90054688 129.99523437 -47.94953125 130.98265625 -48 132 C-48.99 132.33 -49.98 132.66 -51 133 C-51.33 138.61 -51.66 144.22 -52 150 C-53.32 150 -54.64 150 -56 150 C-56 156.27 -56 162.54 -56 169 C-56.99 169 -57.98 169 -59 169 C-59.495 175.435 -59.495 175.435 -60 182 C-61.65 182 -63.3 182 -65 182 C-65 177.38 -65 172.76 -65 168 C-63.68 167.67 -62.36 167.34 -61 167 C-61 161.39 -61 155.78 -61 150 C-59.68 149.67 -58.36 149.34 -57 149 C-57 143.72 -57 138.44 -57 133 C-55.02 132.01 -55.02 132.01 -53 131 C-53 124.73 -53 118.46 -53 112 C-51.02 111.505 -51.02 111.505 -49 111 C-49.01160156 110.01257813 -49.02320312 109.02515625 -49.03515625 108.0078125 C-49.04417969 106.72648437 -49.05320312 105.44515625 -49.0625 104.125 C-49.07410156 102.84882813 -49.08570312 101.57265625 -49.09765625 100.2578125 C-49 97 -49 97 -48 95 C-47.01 95 -46.02 95 -45 95 C-45 90.05 -45 85.1 -45 80 C-43.02 79.505 -43.02 79.505 -41 79 C-41 75.7 -41 72.4 -41 69 C-39.02 68.01 -39.02 68.01 -37 67 C-37.01160156 66.01257813 -37.02320312 65.02515625 -37.03515625 64.0078125 C-37.04417969 62.72648437 -37.05320312 61.44515625 -37.0625 60.125 C-37.07410156 58.84882813 -37.08570312 57.57265625 -37.09765625 56.2578125 C-37 53 -37 53 -36 51 C-35.01 51 -34.02 51 -33 51 C-33.01160156 50.30132812 -33.02320312 49.60265625 -33.03515625 48.8828125 C-33.04417969 47.97273438 -33.05320312 47.06265625 -33.0625 46.125 C-33.07410156 45.22007812 -33.08570312 44.31515625 -33.09765625 43.3828125 C-33 41 -33 41 -32 39 C-31.01 39 -30.02 39 -29 39 C-29.020625 38.05125 -29.04125 37.1025 -29.0625 36.125 C-29 33 -29 33 -28 31 C-27.01 31 -26.02 31 -25 31 C-25 29.02 -25 27.04 -25 25 C-24.360625 24.731875 -23.72125 24.46375 -23.0625 24.1875 C-20.66868314 23.11332248 -20.66868314 23.11332248 -20 20 C-16.25105926 16.42146566 -14.13560536 14.85593423 -9 14 C-8.34 13.01 -7.68 12.02 -7 11 C-3.875 10.8125 -3.875 10.8125 -1 11 C-1 10.01 -1 9.02 -1 8 C0.32 7.67 1.64 7.34 3 7 C3 5.02 3 3.04 3 1 C2.01 0.67 1.02 0.34 0 0 Z " fill="#070309" transform="translate(137,218)"/>
<path d="M0 0 C9.24 0 18.48 0 28 0 C28 0.66 28 1.32 28 2 C30.64 2 33.28 2 36 2 C36 2.66 36 3.32 36 4 C37.32 4 38.64 4 40 4 C40 4.66 40 5.32 40 6 C40.66 6 41.32 6 42 6 C42 8.64 42 11.28 42 14 C41.34 14 40.68 14 40 14 C40 14.66 40 15.32 40 16 C39.34 16 38.68 16 38 16 C38 16.66 38 17.32 38 18 C36.68 18 35.36 18 34 18 C34 18.66 34 19.32 34 20 C32.68 20 31.36 20 30 20 C30 20.66 30 21.32 30 22 C28.68 22 27.36 22 26 22 C26 22.66 26 23.32 26 24 C21.38 24 16.76 24 12 24 C12 23.34 12 22.68 12 22 C10.68 22 9.36 22 8 22 C8 21.34 8 20.68 8 20 C6.68 20 5.36 20 4 20 C4 19.34 4 18.68 4 18 C3.34 18 2.68 18 2 18 C2 17.34 2 16.68 2 16 C1.34 16 0.68 16 0 16 C0 15.34 0 14.68 0 14 C-0.66 14 -1.32 14 -2 14 C-2 12.68 -2 11.36 -2 10 C-3.32 10 -4.64 10 -6 10 C-6 8.02 -6 6.04 -6 4 C-5.34 4 -4.68 4 -4 4 C-4 3.34 -4 2.68 -4 2 C-2.68 2 -1.36 2 0 2 C0 1.34 0 0.68 0 0 Z " fill="#695B62" transform="translate(179,192)"/>
<path d="M0 0 C0.99 0 1.98 0 3 0 C3.66 0.66 4.32 1.32 5 2 C8.58343976 2.16677282 8.58343976 2.16677282 12 2 C11.67 3.32 11.34 4.64 11 6 C10.34 5.67 9.68 5.34 9 5 C8.67 6.65 8.34 8.3 8 10 C8.99 10 9.98 10 11 10 C11.495 11.98 11.495 11.98 12 14 C10.68 14 9.36 14 8 14 C8.495 15.485 8.495 15.485 9 17 C12.63 17.33 16.26 17.66 20 18 C20 19.32 20 20.64 20 22 C17.36 22 14.72 22 12 22 C12 23.32 12 24.64 12 26 C10.68 26 9.36 26 8 26 C8 28.64 8 31.28 8 34 C6.68 34 5.36 34 4 34 C4 35.32 4 36.64 4 38 C2.68 38 1.36 38 0 38 C0 39.32 0 40.64 0 42 C-2.64 42 -5.28 42 -8 42 C-8 43.32 -8 44.64 -8 46 C-9.32 46 -10.64 46 -12 46 C-12.103125 46.763125 -12.20625 47.52625 -12.3125 48.3125 C-13 51 -13 51 -14.0625 52.875 C-17.33007019 54.77229882 -20.36906876 53.65475809 -24 53 C-23.67 51.68 -23.34 50.36 -23 49 C-22.34 49 -21.68 49 -21 49 C-20.67 46.36 -20.34 43.72 -20 41 C-19.01 41 -18.02 41 -17 41 C-17.020625 39.7625 -17.04125 38.525 -17.0625 37.25 C-17.06766681 34.3359175 -16.93015558 31.79046673 -16 29 C-15.01 29 -14.02 29 -13 29 C-13 26.36 -13 23.72 -13 21 C-12.67 21 -12.34 21 -12 21 C-11.855625 22.11375 -11.71125 23.2275 -11.5625 24.375 C-11.21627965 27.82142047 -11.21627965 27.82142047 -10 30 C-9.34 30 -8.68 30 -8 30 C-8 26.37 -8 22.74 -8 19 C-6.68 18.67 -5.36 18.34 -4 18 C-4 15.36 -4 12.72 -4 10 C-4.66 9.67 -5.32 9.34 -6 9 C-5.67 8.34 -5.34 7.68 -5 7 C-2.4375 6.375 -2.4375 6.375 0 6 C0 4.02 0 2.04 0 0 Z " fill="#1C161C" transform="translate(161,132)"/>
<path d="M0 0 C0.99 0.66 1.98 1.32 3 2 C3 2.66 3 3.32 3 4 C4.32 4.66 5.64 5.32 7 6 C7 9.3 7 12.6 7 16 C8.32 16.66 9.64 17.32 11 18 C11 21.3 11 24.6 11 28 C12.32 28.33 13.64 28.66 15 29 C15.12375 30.134375 15.2475 31.26875 15.375 32.4375 C15.58125 33.613125 15.7875 34.78875 16 36 C16.66 36.33 17.32 36.66 18 37 C19.09506492 40.28519475 19.09960608 42.73663415 19.0625 46.1875 C19.05347656 47.27417969 19.04445313 48.36085938 19.03515625 49.48046875 C19.02355469 50.31191406 19.01195312 51.14335937 19 52 C20.32 52.66 21.64 53.32 23 54 C23 61.26 23 68.52 23 76 C24.32 76.66 25.64 77.32 27 78 C27 82.62 27 87.24 27 92 C28.32 92.33 29.64 92.66 31 93 C31 97.95 31 102.9 31 108 C32.32 108.66 33.64 109.32 35 110 C35 113.3 35 116.6 35 120 C36.32 120.33 37.64 120.66 39 121 C38.979375 122.0725 38.95875 123.145 38.9375 124.25 C38.93723526 128.24974163 38.93723526 128.24974163 40 132 C40.99 132.33 41.98 132.66 43 133 C43 138.94 43 144.88 43 151 C41.35 151 39.7 151 38 151 C38 145.39 38 139.78 38 134 C36.68 134.33 35.36 134.66 34 135 C33.67 130.71 33.34 126.42 33 122 C32.01 121.67 31.02 121.34 30 121 C30 117.04 30 113.08 30 109 C28.68 109 27.36 109 26 109 C26 103.72 26 98.44 26 93 C24.68 93 23.36 93 22 93 C20.99890485 89.68929162 20.89643866 86.69915231 20.9375 83.25 C20.94652344 82.26515625 20.95554687 81.2803125 20.96484375 80.265625 C20.97644531 79.51796875 20.98804688 78.7703125 21 78 C19.68 77.67 18.36 77.34 17 77 C17.33 69.08 17.66 61.16 18 53 C16.68 53 15.36 53 14 53 C14 47.72 14 42.44 14 37 C12.35 37 10.7 37 9 37 C9.33 34.36 9.66 31.72 10 29 C8.68 29 7.36 29 6 29 C5.25904643 26.11851388 4.90679304 24.34740778 5.6875 21.4375 C5.790625 20.633125 5.89375 19.82875 6 19 C5.360625 18.443125 4.72125 17.88625 4.0625 17.3125 C1.12255674 14.01619998 1.68658318 11.31730142 1.859375 7.046875 C1.92898438 6.03367188 1.92898438 6.03367188 2 5 C0.35 4.67 -1.3 4.34 -3 4 C-2.67 3.01 -2.34 2.02 -2 1 C-1.34 0.67 -0.68 0.34 0 0 Z " fill="#070308" transform="translate(283,249)"/>
<path d="M0 0 C0.99 0 1.98 0 3 0 C3.66 0.66 4.32 1.32 5 2 C8.58343976 2.16677282 8.58343976 2.16677282 12 2 C11.67 3.32 11.34 4.64 11 6 C10.34 5.67 9.68 5.34 9 5 C8.67 6.65 8.34 8.3 8 10 C8.99 10 9.98 10 11 10 C11.33 11.32 11.66 12.64 12 14 C10.68 14 9.36 14 8 14 C8.33 14.99 8.66 15.98 9 17 C12.63 17.33 16.26 17.66 20 18 C20 19.32 20 20.64 20 22 C17.36 22 14.72 22 12 22 C12 23.32 12 24.64 12 26 C10.68 26 9.36 26 8 26 C8 28.64 8 31.28 8 34 C6.35 34 4.7 34 3 34 C3 32.35 3 30.7 3 29 C1.02 29.99 1.02 29.99 -1 31 C-3.10827055 27.83759418 -3.33817465 26.49342531 -3.625 22.8125 C-3.69976562 21.91144531 -3.77453125 21.01039063 -3.8515625 20.08203125 C-3.90054688 19.39496094 -3.94953125 18.70789063 -4 18 C-3.34 18 -2.68 18 -2 18 C-2.495 17.13375 -2.495 17.13375 -3 16.25 C-4 14 -4 14 -4 10 C-4.66 9.67 -5.32 9.34 -6 9 C-5.67 8.34 -5.34 7.68 -5 7 C-2.4375 6.375 -2.4375 6.375 0 6 C0 4.02 0 2.04 0 0 Z " fill="#1F171E" transform="translate(161,132)"/>
<path d="M0 0 C3.96 0 7.92 0 12 0 C12 1.32 12 2.64 12 4 C15.96 4 19.92 4 24 4 C24 5.32 24 6.64 24 8 C26.64 8 29.28 8 32 8 C32 10.64 32 13.28 32 16 C31.34 16 30.68 16 30 16 C30 15.34 30 14.68 30 14 C28.68 14 27.36 14 26 14 C26 13.34 26 12.68 26 12 C23.36 12 20.72 12 18 12 C18 11.34 18 10.68 18 10 C8.76 10 -0.48 10 -10 10 C-10 10.66 -10 11.32 -10 12 C-11.32 12 -12.64 12 -14 12 C-14 12.66 -14 13.32 -14 14 C-14.66 14 -15.32 14 -16 14 C-16 12.02 -16 10.04 -16 8 C-14.68 8 -13.36 8 -12 8 C-12 6.35 -12 4.7 -12 3 C-8.04 3.33 -4.08 3.66 0 4 C0 2.68 0 1.36 0 0 Z " fill="#2B2327" transform="translate(189,182)"/>
<path d="M0 0 C2.64 0 5.28 0 8 0 C8 7.92 8 15.84 8 24 C5.36 24 2.72 24 0 24 C0 16.08 0 8.16 0 0 Z " fill="#424349" transform="translate(193,250)"/>
<path d="M0 0 C3.96 0 7.92 0 12 0 C12 1.32 12 2.64 12 4 C13.32 4.33 14.64 4.66 16 5 C15.67 5.99 15.34 6.98 15 8 C8.73 8 2.46 8 -4 8 C-3.67 6.68 -3.34 5.36 -3 4 C-2.01 4 -1.02 4 0 4 C0 2.68 0 1.36 0 0 Z " fill="#261E26" transform="translate(241,226)"/>
<path d="M0 0 C1.32 0 2.64 0 4 0 C4 1.32 4 2.64 4 4 C11.92 4 19.84 4 28 4 C28 4.66 28 5.32 28 6 C24.7 6 21.4 6 18 6 C18 6.66 18 7.32 18 8 C17.34 8 16.68 8 16 8 C15.67 9.32 15.34 10.64 15 12 C14.34 12 13.68 12 13 12 C12.67 12.66 12.34 13.32 12 14 C12 12.02 12 10.04 12 8 C10.34385343 7.61781233 8.67542976 7.28604898 7 7 C6.67 7.33 6.34 7.66 6 8 C4.00041636 8.04080783 1.99954746 8.04254356 0 8 C0 5.36 0 2.72 0 0 Z " fill="#1B131A" transform="translate(149,226)"/>
<path d="M0 0 C0.33 0.99 0.66 1.98 1 3 C3.00016466 4.20882096 3.00016466 4.20882096 5 5 C5 5.66 5 6.32 5 7 C5.598125 7.103125 6.19625 7.20625 6.8125 7.3125 C9.5017689 8.1576988 10.46031875 8.61349407 12 11 C12.25250174 13.71842295 12.13481379 16.25878635 12 19 C10.68 19.33 9.36 19.66 8 20 C7.01879536 16.94736336 7.01879536 15.05263664 8 12 C6.68 12 5.36 12 4 12 C4 10.68 4 9.36 4 8 C0.72226496 8.75150023 0.72226496 8.75150023 -1 12 C-4.625 12.1875 -4.625 12.1875 -8 12 C-7.67 10.68 -7.34 9.36 -7 8 C-4.69 8 -2.38 8 0 8 C0 5.36 0 2.72 0 0 Z " fill="#1B141C" transform="translate(269,230)"/>
<path d="M0 0 C0.33 0 0.66 0 1 0 C1 6.93 1 13.86 1 21 C2.32 21.66 3.64 22.32 5 23 C5 27.62 5 32.24 5 37 C5.66 37.33 6.32 37.66 7 38 C4.69 38 2.38 38 0 38 C-1.31134718 34.09686563 -1.03043509 30.22457296 -0.87890625 26.171875 C-0.85529526 25.42286926 -0.83168427 24.67386353 -0.80735779 23.90216064 C-0.73099344 21.51790112 -0.64685283 19.13398895 -0.5625 16.75 C-0.50925201 15.13022514 -0.4565118 13.51043349 -0.40429688 11.890625 C-0.27541537 7.92686479 -0.13956072 3.96339799 0 0 Z " fill="#0E0A0F" transform="translate(305,304)"/>
<path d="M0 0 C2.97 0 5.94 0 9 0 C8.34 1.32 7.68 2.64 7 4 C6.71519194 6.0742625 6.51125776 8.16071439 6.375 10.25 C6.30023438 11.32765625 6.22546875 12.4053125 6.1484375 13.515625 C6.09945312 14.33546875 6.05046875 15.1553125 6 16 C5.34 16 4.68 16 4 16 C4 13.36 4 10.72 4 8 C1.36 8 -1.28 8 -4 8 C-4 6.68 -4 5.36 -4 4 C-2.68 4 -1.36 4 0 4 C0 2.68 0 1.36 0 0 Z " fill="#31242E" transform="translate(241,238)"/>
<path d="M0 0 C0.99 0.33 1.98 0.66 3 1 C2.34 1 1.68 1 1 1 C1 1.66 1 2.32 1 3 C2.98 3.495 2.98 3.495 5 4 C5 4.99 5 5.98 5 7 C8.3 7 11.6 7 15 7 C15.33 8.65 15.66 10.3 16 12 C12.04 12 8.08 12 4 12 C3.67 11.01 3.34 10.02 3 9 C2.01 8.67 1.02 8.34 0 8 C0 5.36 0 2.72 0 0 Z " fill="#040105" transform="translate(253,222)"/>
<path d="M0 0 C0.99 0 1.98 0 3 0 C3 1.32 3 2.64 3 4 C4.32 4 5.64 4 7 4 C7 5.98 7 7.96 7 10 C4.66666667 10 2.33333333 10 0 10 C-1.67745682 10.63903117 -3.34561387 11.30341637 -5 12 C-5 11.01 -5 10.02 -5 9 C-5.33 8.67 -5.66 8.34 -6 8 C-5.34 7.67 -4.68 7.34 -4 7 C-4.33 6.01 -4.66 5.02 -5 4 C-4.01 3.67 -3.02 3.34 -2 3 C-1.34 2.01 -0.68 1.02 0 0 Z " fill="#2F262E" transform="translate(270,238)"/>
<path d="M0 0 C0 1.32 0 2.64 0 4 C-1.32 4 -2.64 4 -4 4 C-4.33 5.98 -4.66 7.96 -5 10 C-5.33 9.34 -5.66 8.68 -6 8 C-6.66 8 -7.32 8 -8 8 C-8 8.66 -8 9.32 -8 10 C-14.625 10.25 -14.625 10.25 -18 8 C-17.34 8 -16.68 8 -16 8 C-16 6.68 -16 5.36 -16 4 C-11.94952424 2.64984141 -9.2079832 3.37915002 -5 4 C-5.33 3.01 -5.66 2.02 -6 1 C-4 0 -4 0 0 0 Z " fill="#30232D" transform="translate(148,230)"/>
<path d="M0 0 C1.32 0 2.64 0 4 0 C4 6.6 4 13.2 4 20 C2.68 20 1.36 20 0 20 C0 13.4 0 6.8 0 0 Z " fill="#5E6067" transform="translate(197,250)"/>
<path d="M0 0 C1.32 0 2.64 0 4 0 C4 3.96 4 7.92 4 12 C2.68 12 1.36 12 0 12 C0 13.32 0 14.64 0 16 C-5.02296004 17.13016601 -8.97874074 16.77916092 -14 16 C-14 15.67 -14 15.34 -14 15 C-13.21625 14.896875 -12.4325 14.79375 -11.625 14.6875 C-8.66954819 14.22404978 -8.66954819 14.22404978 -7 11 C-3.875 10.8125 -3.875 10.8125 -1 11 C-1 10.01 -1 9.02 -1 8 C0.32 7.67 1.64 7.34 3 7 C3 5.02 3 3.04 3 1 C2.01 0.67 1.02 0.34 0 0 Z " fill="#100C11" transform="translate(137,218)"/>
<path d="M0 0 C1.32 0 2.64 0 4 0 C4 0.66 4 1.32 4 2 C4.66 2 5.32 2 6 2 C6 2.66 6 3.32 6 4 C6.66 4 7.32 4 8 4 C8 5.32 8 6.64 8 8 C8.66 8 9.32 8 10 8 C10 8.66 10 9.32 10 10 C10.66 10 11.32 10 12 10 C12 11.32 12 12.64 12 14 C11.34 14 10.68 14 10 14 C10 13.34 10 12.68 10 12 C8.02 12 6.04 12 4 12 C4 10.68 4 9.36 4 8 C3.34 8 2.68 8 2 8 C2 6.02 2 4.04 2 2 C1.34 2 0.68 2 0 2 C0 1.34 0 0.68 0 0 Z " fill="#2F2B33" transform="translate(161,208)"/>
<path d="M0 0 C0.99 0.33 1.98 0.66 3 1 C3 2.65 3 4.3 3 6 C1.35 6.33 -0.3 6.66 -2 7 C-2.16820551 8.93736701 -2.33451095 10.87489906 -2.5 12.8125 C-2.5928125 13.89144531 -2.685625 14.97039062 -2.78125 16.08203125 C-3.03737838 19.01090811 -3.03737838 19.01090811 -3 22 C-3.99 21.34 -4.98 20.68 -6 20 C-6.99 20.33 -7.98 20.66 -9 21 C-9 19.35 -9 17.7 -9 16 C-8.01 15.67 -7.02 15.34 -6 15 C-5.67 11.7 -5.34 8.4 -5 5 C-3.68 4.67 -2.36 4.34 -1 4 C-0.67 2.68 -0.34 1.36 0 0 Z " fill="#181319" transform="translate(106,282)"/>
<path d="M0 0 C1.32 0 2.64 0 4 0 C4 0.66 4 1.32 4 2 C6.64 2 9.28 2 12 2 C12 2.66 12 3.32 12 4 C13.32 4 14.64 4 16 4 C15.34 5.32 14.68 6.64 14 8 C10.7 7.34 7.4 6.68 4 6 C3.67 6.66 3.34 7.32 3 8 C3 7.34 3 6.68 3 6 C2.34 6 1.68 6 1 6 C0.67 4.02 0.34 2.04 0 0 Z " fill="#60535A" transform="translate(203,192)"/>
<path d="M0 0 C0.99 0.33 1.98 0.66 3 1 C2.67 3.64 2.34 6.28 2 9 C1.01 9.33 0.02 9.66 -1 10 C-1.33 12.31 -1.66 14.62 -2 17 C-3.32 17.33 -4.64 17.66 -6 18 C-7.25 11.375 -7.25 11.375 -5 8 C-4.01 8.33 -3.02 8.66 -2 9 C-2.04125 8.05125 -2.0825 7.1025 -2.125 6.125 C-2 3 -2 3 0 1 C0 0.67 0 0.34 0 0 Z " fill="#060209" transform="translate(147,165)"/>
<path d="M0 0 C1.32 0 2.64 0 4 0 C4 5.28 4 10.56 4 16 C2.68 16 1.36 16 0 16 C0 10.72 0 5.44 0 0 Z " fill="#030004" transform="translate(309,342)"/>
<path d="M0 0 C2.64 0 5.28 0 8 0 C8 1.32 8 2.64 8 4 C9.32 4.33 10.64 4.66 12 5 C11.67 5.99 11.34 6.98 11 8 C8.69 8 6.38 8 4 8 C4 6.68 4 5.36 4 4 C2.68 4 1.36 4 0 4 C0 2.68 0 1.36 0 0 Z " fill="#3A343B" transform="translate(245,226)"/>
<path d="M0 0 C0.33 0 0.66 0 1 0 C1 2.64 1 5.28 1 8 C1.66 8.33 2.32 8.66 3 9 C2.67 10.65 2.34 12.3 2 14 C0.35 14 -1.3 14 -3 14 C-3 18.62 -3 23.24 -3 28 C-3.33 28 -3.66 28 -4 28 C-4 21.73 -4 15.46 -4 9 C-2.68 8.67 -1.36 8.34 0 8 C0 5.36 0 2.72 0 0 Z " fill="#181218" transform="translate(136,185)"/>
<path d="M0 0 C1.33333333 0 2.66666667 0 4 0 C4 3.3 4 6.6 4 10 C1.36 10 -1.28 10 -4 10 C-4 8.68 -4 7.36 -4 6 C-3.01 5.34 -2.02 4.68 -1 4 C-0.27617533 1.94074861 -0.27617533 1.94074861 0 0 Z " fill="#2F242D" transform="translate(137,272)"/>
<path d="M0 0 C0.33 0 0.66 0 1 0 C1.33 2.97 1.66 5.94 2 9 C2.99 9 3.98 9 5 9 C5 9.66 5 10.32 5 11 C1.31245243 10.50168276 -0.60490662 9.89932357 -3 7 C-3.99 7.495 -3.99 7.495 -5 8 C-5 6.68 -5 5.36 -5 4 C-6.98 4 -8.96 4 -11 4 C-10.67 3.01 -10.34 2.02 -10 1 C-6.7 1.33 -3.4 1.66 0 2 C0 1.34 0 0.68 0 0 Z " fill="#0F0C11" transform="translate(188,232)"/>
<path d="M0 0 C0.33 0 0.66 0 1 0 C1.03738281 0.61488281 1.07476562 1.22976562 1.11328125 1.86328125 C1.17902344 2.67152344 1.24476563 3.47976562 1.3125 4.3125 C1.37050781 5.11300781 1.42851562 5.91351563 1.48828125 6.73828125 C2.08979139 9.39686426 3.05232621 10.17664581 5 12 C5.1875 14.6875 5.1875 14.6875 5 17 C5.66 17.33 6.32 17.66 7 18 C5.1875 18.625 5.1875 18.625 3 19 C2.01 18.34 1.02 17.68 0 17 C-0.2208564 14.04935852 -0.28060989 11.31631769 -0.1875 8.375 C-0.17396484 7.57320312 -0.16042969 6.77140625 -0.14648438 5.9453125 C-0.11109051 3.96325622 -0.05728234 1.98154449 0 0 Z " fill="#0D090F" transform="translate(249,168)"/>
<path d="M0 0 C3.63 0 7.26 0 11 0 C11.33 1.32 11.66 2.64 12 4 C7.71 4 3.42 4 -1 4 C-0.67 2.68 -0.34 1.36 0 0 Z " fill="#030006" transform="translate(189,104)"/>
<path d="M0 0 C1.32 0 2.64 0 4 0 C4 3.96 4 7.92 4 12 C2.68 12 1.36 12 0 12 C-0.19477739 10.37585622 -0.38059458 8.75063577 -0.5625 7.125 C-0.66691406 6.22007812 -0.77132812 5.31515625 -0.87890625 4.3828125 C-1 2 -1 2 0 0 Z " fill="#020003" transform="translate(149,150)"/>
<path d="M0 0 C7.92 0 15.84 0 24 0 C24 0.66 24 1.32 24 2 C15.84997076 3.06162705 8.16617194 2.84388104 0 2 C0 1.34 0 0.68 0 0 Z " fill="#110C12" transform="translate(153,230)"/>
<path d="M0 0 C0.33 0 0.66 0 1 0 C1.144375 1.093125 1.28875 2.18625 1.4375 3.3125 C1.88288104 6.93122987 1.88288104 6.93122987 3 10 C2.525625 10.45375 2.05125 10.9075 1.5625 11.375 C-0.09027808 12.93258204 -0.09027808 12.93258204 -1 15 C-1.33 15 -1.66 15 -2 15 C-2.33 16.98 -2.66 18.96 -3 21 C-3.99 20.67 -4.98 20.34 -6 20 C-5.34 20 -4.68 20 -4 20 C-4.020625 18.7625 -4.04125 17.525 -4.0625 16.25 C-4.06766681 13.3359175 -3.93015558 10.79046673 -3 8 C-2.01 8 -1.02 8 0 8 C0 5.36 0 2.72 0 0 Z " fill="#120D15" transform="translate(148,153)"/>
<path d="M0 0 C0.33 0.66 0.66 1.32 1 2 C1.66 2 2.32 2 3 2 C3 2.99 3 3.98 3 5 C2.01 5 1.02 5 0 5 C-0.33 5.66 -0.66 6.32 -1 7 C-1.33 6.67 -1.66 6.34 -2 6 C-2.99 6.495 -2.99 6.495 -4 7 C-4 7.66 -4 8.32 -4 9 C-4.66 9 -5.32 9 -6 9 C-6 7.02 -6 5.04 -6 3 C-5.34 3 -4.68 3 -4 3 C-4 2.34 -4 1.68 -4 1 C-2.68 0.67 -1.36 0.34 0 0 Z " fill="#5C5156" transform="translate(179,193)"/>
<path d="M0 0 C0.33 0.99 0.66 1.98 1 3 C0.34 3 -0.32 3 -1 3 C-1 3.66 -1 4.32 -1 5 C-1.99 5 -2.98 5 -4 5 C-4.33 5.66 -4.66 6.32 -5 7 C-5 6.34 -5 5.68 -5 5 C-6.98 5 -8.96 5 -11 5 C-11 4.01 -11 3.02 -11 2 C-5.555 1.01 -5.555 1.01 0 0 Z " fill="#291D27" transform="translate(256,233)"/>
<path d="M0 0 C1.32 0.66 2.64 1.32 4 2 C3.67 3.32 3.34 4.64 3 6 C0.03 6 -2.94 6 -6 6 C-6 5.01 -6 4.02 -6 3 C-4.125 1.9375 -4.125 1.9375 -2 1 C-1.34 1.33 -0.68 1.66 0 2 C0 1.34 0 0.68 0 0 Z " fill="#241D24" transform="translate(189,108)"/>
<path d="M0 0 C0.99 0.33 1.98 0.66 3 1 C2.34 1 1.68 1 1 1 C1 1.66 1 2.32 1 3 C2.98 3.495 2.98 3.495 5 4 C5 4.99 5 5.98 5 7 C8.3 7 11.6 7 15 7 C15 7.33 15 7.66 15 8 C13.06325815 8.19517554 11.12555991 8.38087873 9.1875 8.5625 C8.10855469 8.66691406 7.02960938 8.77132812 5.91796875 8.87890625 C3 9 3 9 0 8 C0 5.36 0 2.72 0 0 Z " fill="#110E14" transform="translate(253,222)"/>
<path d="M0 0 C1.15941038 3.47823115 0.70820884 5.45895578 0 9 C-1.32 9 -2.64 9 -4 9 C-4 7.68 -4 6.36 -4 5 C-4.66 4.67 -5.32 4.34 -6 4 C-5.34 4 -4.68 4 -4 4 C-4.33 3.01 -4.66 2.02 -5 1 C-3.35 0.67 -1.7 0.34 0 0 Z " fill="#171416" transform="translate(253,189)"/>
<path d="M0 0 C1.98 0.495 1.98 0.495 4 1 C4 1.99 4 2.98 4 4 C5.65 4.33 7.3 4.66 9 5 C9 5.99 9 6.98 9 8 C7.02 8 5.04 8 3 8 C3 7.34 3 6.68 3 6 C1.68 5.34 0.36 4.68 -1 4 C-0.67 2.68 -0.34 1.36 0 0 Z " fill="#261C26" transform="translate(209,114)"/>
<path d="M0 0 C0.99 0 1.98 0 3 0 C3 2.31 3 4.62 3 7 C1.68 7.33 0.36 7.66 -1 8 C-1 7.01 -1 6.02 -1 5 C-1.66 5.99 -2.32 6.98 -3 8 C-4 7 -4 7 -4.0625 4.4375 C-4.041875 3.633125 -4.02125 2.82875 -4 2 C-2.68 2 -1.36 2 0 2 C0 1.34 0 0.68 0 0 Z " fill="#31262F" transform="translate(117,248)"/>
<path d="M0 0 C1.2065625 0.0309375 1.2065625 0.0309375 2.4375 0.0625 C1.9425 0.97 1.4475 1.8775 0.9375 2.8125 C-0.84187212 6.07123038 -0.84187212 6.07123038 -0.5625 10.0625 C-0.5625 10.7225 -0.5625 11.3825 -0.5625 12.0625 C-1.5525 12.0625 -2.5425 12.0625 -3.5625 12.0625 C-3.58937279 10.25007948 -3.60883715 8.43754767 -3.625 6.625 C-3.63660156 5.61566406 -3.64820312 4.60632813 -3.66015625 3.56640625 C-3.52706167 0.15386128 -3.42090834 0.08343679 0 0 Z " fill="#30252D" transform="translate(112.5625,257.9375)"/>
<path d="M0 0 C2 2 2 2 2.1953125 3.9453125 C2.13020833 5.96354167 2.06510417 7.98177083 2 10 C0.68 10 -0.64 10 -2 10 C-2 7.03 -2 4.06 -2 1 C-1.34 0.67 -0.68 0.34 0 0 Z " fill="#030004" transform="translate(75,390)"/>
<path d="M0 0 C0.33 0 0.66 0 1 0 C1.33 4.29 1.66 8.58 2 13 C0.02 13 -1.96 13 -4 13 C-3.625 10.5625 -3.625 10.5625 -3 8 C-2.34 7.67 -1.68 7.34 -1 7 C-0.59270772 4.67843403 -0.25561323 2.3431213 0 0 Z " fill="#0E0A0E" transform="translate(301,289)"/>
<path d="M0 0 C0.33 0 0.66 0 1 0 C1 2.64 1 5.28 1 8 C0.34 8 -0.32 8 -1 8 C-1 9.32 -1 10.64 -1 12 C-1.66 12 -2.32 12 -3 12 C-3 8.7 -3 5.4 -3 2 C-2.01 2 -1.02 2 0 2 C0 1.34 0 0.68 0 0 Z " fill="#2E2C30" transform="translate(226,208)"/>
<path d="M0 0 C0 2.64 0 5.28 0 8 C-1.32 8.33 -2.64 8.66 -4 9 C-4.96516243 5.99727245 -5.22393475 3.95784231 -4 1 C-1 0 -1 0 0 0 Z " fill="#080306" transform="translate(281,241)"/>
<path d="M0 0 C2.64 0 5.28 0 8 0 C8 1.32 8 2.64 8 4 C4.94736336 4.98120464 3.05263664 4.98120464 0 4 C0 2.68 0 1.36 0 0 Z " fill="#39333A" transform="translate(261,234)"/>
<path d="M0 0 C2.05078125 0.03255208 4.1015625 0.06510417 6.15234375 0.09765625 C6.15234375 1.41765625 6.15234375 2.73765625 6.15234375 4.09765625 C3.51234375 4.09765625 0.87234375 4.09765625 -1.84765625 4.09765625 C-2.17765625 3.10765625 -2.50765625 2.11765625 -2.84765625 1.09765625 C-1.84765625 0.09765625 -1.84765625 0.09765625 0 0 Z " fill="#050104" transform="translate(122.84765625,233.90234375)"/>
<path d="M0 0 C2.31 0 4.62 0 7 0 C7.33 1.65 7.66 3.3 8 5 C5.36 4.67 2.72 4.34 0 4 C0 2.68 0 1.36 0 0 Z " fill="#1C121B" transform="translate(257,282)"/>
<path d="M0 0 C0.33 1.32 0.66 2.64 1 4 C1.66 4 2.32 4 3 4 C1.62308038 6.75383923 -0.36720042 7.51483101 -3 9 C-4.125 4.25 -4.125 4.25 -3 2 C-2.01 2 -1.02 2 0 2 C0 1.34 0 0.68 0 0 Z " fill="#191319" transform="translate(285,264)"/>
<path d="M0 0 C0.99 0.33 1.98 0.66 3 1 C3 1.66 3 2.32 3 3 C2.34 3 1.68 3 1 3 C1 3.99 1 4.98 1 6 C0.01 6.495 0.01 6.495 -1 7 C-0.67 7.66 -0.34 8.32 0 9 C-1.65 9 -3.3 9 -5 9 C-4.67 7.35 -4.34 5.7 -4 4 C-3.01 4 -2.02 4 -1 4 C-0.67 2.68 -0.34 1.36 0 0 Z " fill="#2A2029" transform="translate(122,238)"/>
<path d="M0 0 C1.32 0 2.64 0 4 0 C4 1.32 4 2.64 4 4 C4.66 4 5.32 4 6 4 C6 5.32 6 6.64 6 8 C4.68 8 3.36 8 2 8 C2 6.68 2 5.36 2 4 C1.34 4 0.68 4 0 4 C0 2.68 0 1.36 0 0 Z " fill="#1A1718" transform="translate(159,200)"/>
<path d="M0 0 C0.78375 0.33 1.5675 0.66 2.375 1 C4.84332497 2.11866511 4.84332497 2.11866511 7 2 C8.32 2 9.64 2 11 2 C11.33 2.99 11.66 3.98 12 5 C8.04 5 4.08 5 0 5 C0 3.35 0 1.7 0 0 Z " fill="#211720" transform="translate(189,137)"/>
<path d="M0 0 C2.31 0 4.62 0 7 0 C7 0.99 7 1.98 7 3 C5.02 3 3.04 3 1 3 C0.34 4.32 -0.32 5.64 -1 7 C-2.98 7 -4.96 7 -7 7 C-6.67 6.34 -6.34 5.68 -6 5 C-4.35 5 -2.7 5 -1 5 C-0.67 3.35 -0.34 1.7 0 0 Z " fill="#0F0A0E" transform="translate(218,233)"/>
<path d="M0 0 C1.32 0.33 2.64 0.66 4 1 C3.34 1 2.68 1 2 1 C1.67 2.98 1.34 4.96 1 7 C-0.65 7.33 -2.3 7.66 -4 8 C-4.33 6.68 -4.66 5.36 -5 4 C-3.35 4 -1.7 4 0 4 C0 2.68 0 1.36 0 0 Z " fill="#161116" transform="translate(205,242)"/>
<path d="M0 0 C1.32 0.33 2.64 0.66 4 1 C3.34 2.98 2.68 4.96 2 7 C0.02 6.34 -1.96 5.68 -4 5 C-3.01 4.67 -2.02 4.34 -1 4 C-0.26676204 1.98491642 -0.26676204 1.98491642 0 0 Z " fill="#231921" transform="translate(166,126)"/>
<path d="M0 0 C0.33 1.32 0.66 2.64 1 4 C-1.64 4 -4.28 4 -7 4 C-7 5.32 -7 6.64 -7 8 C-8.32 8 -9.64 8 -11 8 C-10 5 -10 5 -8 3 C-6.2365625 2.7525 -6.2365625 2.7525 -4.4375 2.5 C-3.303125 2.335 -2.16875 2.17 -1 2 C-0.67 1.34 -0.34 0.68 0 0 Z " fill="#151216" transform="translate(160,170)"/>
<path d="M0 0 C0.66 0 1.32 0 2 0 C2 3.63 2 7.26 2 11 C1.34 11 0.68 11 0 11 C0 8.36 0 5.72 0 3 C-0.66 2.67 -1.32 2.34 -2 2 C-1.34 1.34 -0.68 0.68 0 0 Z " fill="#252525" transform="translate(155,205)"/>
<path d="M0 0 C0 0.66 0 1.32 0 2 C-0.66 2 -1.32 2 -2 2 C-2 3.32 -2 4.64 -2 6 C-3.98 6 -5.96 6 -8 6 C-8 4 -8 4 -6.25 1.875 C-4 0 -4 0 0 0 Z " fill="#131214" transform="translate(231,204)"/>
<path d="M0 0 C2.475 0.495 2.475 0.495 5 1 C5.33 2.32 5.66 3.64 6 5 C5.01 5.33 4.02 5.66 3 6 C2.01 5.34 1.02 4.68 0 4 C0 2.68 0 1.36 0 0 Z " fill="#342930" transform="translate(169,122)"/>
<path d="M0 0 C0.33 0.99 0.66 1.98 1 3 C1.99 3.33 2.98 3.66 4 4 C4 5.32 4 6.64 4 8 C2.68 7.67 1.36 7.34 0 7 C0 4.69 0 2.38 0 0 Z " fill="#110D12" transform="translate(269,230)"/>
<path d="M0 0 C-0.99 0 -1.98 0 -3 0 C-2.67 1.32 -2.34 2.64 -2 4 C-2.66 4 -3.32 4 -4 4 C-4 4.66 -4 5.32 -4 6 C-4.66 6 -5.32 6 -6 6 C-6 4.02 -6 2.04 -6 0 C-3.50907189 -1.24546405 -2.58919267 -0.7767578 0 0 Z " fill="#5F595C" transform="translate(179,196)"/>
<path d="M0 0 C1 3 1 3 0 6 C-1.65 6.33 -3.3 6.66 -5 7 C-4.67 5.68 -4.34 4.36 -4 3 C-2.68 2.67 -1.36 2.34 0 2 C0 1.34 0 0.68 0 0 Z " fill="#30242E" transform="translate(157,256)"/>
<path d="M0 0 C1.32 0.33 2.64 0.66 4 1 C4 2.32 4 3.64 4 5 C2.68 5 1.36 5 0 5 C0 3.35 0 1.7 0 0 Z " fill="#1C161C" transform="translate(181,145)"/>
<path d="M0 0 C0.66 0.33 1.32 0.66 2 1 C2 3.31 2 5.62 2 8 C1.34 7.01 0.68 6.02 0 5 C-0.99 5 -1.98 5 -3 5 C-2.67 4.01 -2.34 3.02 -2 2 C-1.34 2 -0.68 2 0 2 C0 1.34 0 0.68 0 0 Z " fill="#0F0B0E" transform="translate(292,266)"/>
<path d="M0 0 C1.98 0 3.96 0 6 0 C6 0.99 6 1.98 6 3 C4.02 3 2.04 3 0 3 C0 2.01 0 1.02 0 0 Z " fill="#261B25" transform="translate(203,139)"/>
<path d="M0 0 C1.32 0.33 2.64 0.66 4 1 C4 2.32 4 3.64 4 5 C2.68 4.67 1.36 4.34 0 4 C0 2.68 0 1.36 0 0 Z " fill="#050106" transform="translate(157,130)"/>
<path d="M0 0 C0 1.32 0 2.64 0 4 C-1.98 4.33 -3.96 4.66 -6 5 C-6.33 4.34 -6.66 3.68 -7 3 C-2.25 0 -2.25 0 0 0 Z " fill="#0A0307" transform="translate(137,230)"/>
<path d="" fill="#FFFFFF" transform="translate(0,0)"/>
<path d="" fill="#FFFFFF" transform="translate(0,0)"/>
<path d="" fill="#FFFFFF" transform="translate(0,0)"/>
<path d="" fill="#FFFFFF" transform="translate(0,0)"/>
<path d="" fill="#FFFFFF" transform="translate(0,0)"/>
<path d="" fill="#FFFFFF" transform="translate(0,0)"/>
<path d="" fill="#FFFFFF" transform="translate(0,0)"/>
<path d="" fill="#FFFFFF" transform="translate(0,0)"/>
<path d="" fill="#FFFFFF" transform="translate(0,0)"/>
<path d="" fill="#FFFFFF" transform="translate(0,0)"/>
<path d="" fill="#FFFFFF" transform="translate(0,0)"/>
<path d="" fill="#FFFFFF" transform="translate(0,0)"/>
<path d="" fill="#FFFFFF" transform="translate(0,0)"/>
<path d="" fill="#FFFFFF" transform="translate(0,0)"/>
<path d="" fill="#FFFFFF" transform="translate(0,0)"/>
<path d="" fill="#FFFFFF" transform="translate(0,0)"/>
<path d="" fill="#FFFFFF" transform="translate(0,0)"/>
<path d="" fill="#FFFFFF" transform="translate(0,0)"/>
<path d="" fill="#FFFFFF" transform="translate(0,0)"/>
<path d="" fill="#FFFFFF" transform="translate(0,0)"/>
<path d="" fill="#FFFFFF" transform="translate(0,0)"/>
<path d="" fill="#FFFFFF" transform="translate(0,0)"/>
<path d="" fill="#FFFFFF" transform="translate(0,0)"/>
<path d="" fill="#FFFFFF" transform="translate(0,0)"/>
<path d="" fill="#FFFFFF" transform="translate(0,0)"/>
<path d="" fill="#FFFFFF" transform="translate(0,0)"/>
<path d="" fill="#FFFFFF" transform="translate(0,0)"/>
<path d="" fill="#FFFFFF" transform="translate(0,0)"/>
<path d="" fill="#FFFFFF" transform="translate(0,0)"/>
<path d="" fill="#FFFFFF" transform="translate(0,0)"/>
<path d="" fill="#FFFFFF" transform="translate(0,0)"/>
<path d="" fill="#FFFFFF" transform="translate(0,0)"/>
<path d="" fill="#FFFFFF" transform="translate(0,0)"/>
<path d="" fill="#FFFFFF" transform="translate(0,0)"/>
<path d="" fill="#FFFFFF" transform="translate(0,0)"/>
<path d="" fill="#FFFFFF" transform="translate(0,0)"/>
<path d="" fill="#FFFFFF" transform="translate(0,0)"/>
<path d="" fill="#FFFFFF" transform="translate(0,0)"/>
</svg>
